<svg xmlns="http://www.w3.org/2000/svg" viewBox="0 0 251.49 55.59" fill="#fff" xmlns:v="https://vecta.io/nano"><path d="M40.75 6.86h-9.94V27.6H20.35V6.86h-9.94V27.6H0V6.96C0 6 .2 5.1.6 4.25s.93-1.58 1.58-2.21A7.82 7.82 0 0 1 4.46.55C5.32.18 6.24 0 7.2 0h44.02v27.6H40.76V6.86h-.01zm56.02 13.88v6.86H63.41c-.99 0-1.93-.19-2.81-.58-.88-.38-1.65-.9-2.3-1.56-.66-.66-1.18-1.42-1.56-2.3a7.03 7.03 0 0 1-.58-2.81V7.25c0-.99.19-1.93.58-2.81.38-.88.9-1.65 1.56-2.3.66-.66 1.42-1.18 2.3-1.56A7.03 7.03 0 0 1 63.41 0h33.36v6.86H66.63v13.87h30.14zm-24.29-3.7v-6.43h22.18v6.43H72.48zm29.19 3.7h14.98V6.86h-14.93V0h40.37v6.86h-14.98v13.87h14.93v6.86h-40.37v-6.86h0zm55.77 6.86h-10.46V0h33.46c.96 0 1.87.18 2.74.55.86.37 1.62.86 2.28 1.49.66.62 1.18 1.36 1.58 2.21s.6 1.75.6 2.71V27.6h-10.42V6.86h-19.78V27.6zm75.7-6.86v6.86h-33.36c-.99 0-1.93-.19-2.81-.58-.88-.38-1.65-.9-2.3-1.56-.66-.66-1.18-1.42-1.56-2.3a7.03 7.03 0 0 1-.58-2.81V7.25c0-.99.19-1.93.58-2.81.38-.88.9-1.65 1.56-2.3.66-.66 1.42-1.18 2.3-1.56a7.03 7.03 0 0 1 2.81-.58h33.36v6.86H203v13.87h30.14zm-24.29-3.7v-6.43h22.18v6.43h-22.18zM26.4 51.13v4.46H4.71c-.65 0-1.25-.12-1.83-.37-.57-.25-1.07-.59-1.5-1.01s-.76-.93-1.01-1.5S0 51.53 0 50.88v-8.52a4.57 4.57 0 0 1 .37-1.83c.25-.57.59-1.07 1.01-1.5.43-.43.93-.76 1.5-1.01s1.18-.37 1.83-.37h21.68v4.46H6.8v9.02h19.6zm-15.79-2.4v-4.18h14.41v4.18H10.61zm25.8 2.4H56v4.46H29.6V37.65h6.8v13.48h0zm49.17 0v4.46H63.9c-.65 0-1.25-.12-1.83-.37-.57-.25-1.07-.59-1.5-1.01s-.76-.93-1.01-1.5-.37-1.18-.37-1.83v-8.52a4.57 4.57 0 0 1 .37-1.83c.25-.57.59-1.07 1.01-1.5.43-.43.93-.76 1.5-1.01s1.18-.37 1.83-.37h21.68v4.46H65.99v9.02h19.59zm-15.79-2.4v-4.18H84.2v4.18H69.79zm25.81 2.4h19.59v4.46H93.51c-.65 0-1.25-.12-1.83-.37-.57-.25-1.07-.59-1.5-1.01s-.76-.93-1.01-1.5-.37-1.18-.37-1.83v-8.52a4.57 4.57 0 0 1 .37-1.83c.25-.57.59-1.07 1.01-1.5.43-.43.93-.76 1.5-1.01s1.18-.37 1.83-.37h21.68v4.46H95.6v9.02zm49.01-9.02h-9.7v13.48h-6.8V42.11h-9.73v-4.46h26.24v4.46h-.01zm22.84 0H154.6v13.48h-6.8V37.65h21.12a5.72 5.72 0 0 1 1.95.34c.63.23 1.2.55 1.7.97a4.89 4.89 0 0 1 1.2 1.48c.3.57.45 1.2.45 1.89v2.15c0 .62-.16 1.22-.48 1.79a5.44 5.44 0 0 1-1.25 1.5c-.51.43-1.08.77-1.7 1.03s-1.23.39-1.81.39l4.96 6.4h-7.3l-8.05-10.61h8.86v-2.87h0zm9.92 9.02h9.73v-9.02h-9.7v-4.46h26.24v4.46h-9.73v9.02h9.7v4.46h-26.24v-4.46zm36.26 0h19.59v4.46h-21.68c-.65 0-1.25-.12-1.83-.37-.57-.25-1.07-.59-1.5-1.01-.43-.43-.76-.93-1.01-1.5a4.51 4.51 0 0 1-.38-1.83v-8.52c0-.64.12-1.25.38-1.83.25-.57.59-1.07 1.01-1.5.43-.43.93-.76 1.5-1.01s1.18-.37 1.83-.37h21.68v4.46h-19.59v9.02zM239.1 7.88v-6.7h-2.47V.16h6.24v1.02h-2.46v6.71h-1.31zm4.82 0V.16h1.34l2.45 5 2.44-5h1.34v7.73h-1.3V2.28l-2.09 4.27h-.79l-2.1-4.27v5.6h-1.3.01z"/></svg>