<?xml version="1.0" encoding="UTF-8"?>
<svg id="Layer_1" data-name="Layer 1" xmlns="http://www.w3.org/2000/svg" viewBox="0 0 251.49 55.59">
  <defs>
    <style>
      .cls-1 {
        fill: #b5d411;
      }
    </style>
  </defs>
  <g>
    <g>
      <path class="cls-1" d="m40.75,6.86h-9.94v20.74h-10.46V6.86h-9.94v20.74H0V6.96c0-.96.2-1.86.6-2.71s.93-1.58,1.58-2.21c.66-.62,1.42-1.12,2.28-1.49s1.78-.55,2.74-.55h44.02v27.6h-10.46V6.86h-.01Z"/>
      <path class="cls-1" d="m96.77,20.74v6.86h-33.36c-.99,0-1.93-.19-2.81-.58-.88-.38-1.65-.9-2.3-1.56-.66-.66-1.18-1.42-1.56-2.3s-.58-1.82-.58-2.81V7.25c0-.99.19-1.93.58-2.81.38-.88.9-1.65,1.56-2.3.66-.66,1.42-1.18,2.3-1.56S62.42,0,63.41,0h33.36v6.86h-30.14v13.87h30.14Zm-24.29-3.7v-6.43h22.18v6.43h-22.18Z"/>
      <path class="cls-1" d="m101.67,20.74h14.98V6.86h-14.93V0h40.37v6.86h-14.98v13.87h14.93v6.86h-40.37v-6.86h0Z"/>
      <path class="cls-1" d="m157.44,27.6h-10.46V0h33.46C181.4,0,182.31.18,183.18.55c.86.37,1.62.86,2.28,1.49.66.62,1.18,1.36,1.58,2.21.4.85.6,1.75.6,2.71v20.64h-10.42V6.86h-19.78v20.74Z"/>
      <path class="cls-1" d="m233.14,20.74v6.86h-33.36c-.99,0-1.93-.19-2.81-.58-.88-.38-1.65-.9-2.3-1.56-.66-.66-1.18-1.42-1.56-2.3s-.58-1.82-.58-2.81V7.25c0-.99.19-1.93.58-2.81.38-.88.9-1.65,1.56-2.3.66-.66,1.42-1.18,2.3-1.56S198.79,0,199.78,0h33.36v6.86h-30.14v13.87h30.14Zm-24.29-3.7v-6.43h22.18v6.43h-22.18Z"/>
    </g>
    <g>
      <path class="cls-1" d="m26.4,51.13v4.46H4.71c-.65,0-1.25-.12-1.83-.37-.57-.25-1.07-.59-1.5-1.01s-.76-.93-1.01-1.5S0,51.53,0,50.88v-8.52C0,41.72.12,41.11.37,40.53c.25-.57.59-1.07,1.01-1.5.43-.43.93-.76,1.5-1.01s1.18-.37,1.83-.37h21.68v4.46H6.8v9.02h19.6Zm-15.79-2.4v-4.18h14.41v4.18s-14.41,0-14.41,0Z"/>
      <path class="cls-1" d="m36.41,51.13h19.59v4.46h-26.4v-17.94h6.8v13.48h0Z"/>
      <path class="cls-1" d="m85.58,51.13v4.46h-21.68c-.65,0-1.25-.12-1.83-.37-.57-.25-1.07-.59-1.5-1.01s-.76-.93-1.01-1.5-.37-1.18-.37-1.83v-8.52c0-.64.12-1.25.37-1.83.25-.57.59-1.07,1.01-1.5.43-.43.93-.76,1.5-1.01s1.18-.37,1.83-.37h21.68v4.46h-19.59v9.02h19.59Zm-15.79-2.4v-4.18h14.41v4.18h-14.41Z"/>
      <path class="cls-1" d="m95.6,51.13h19.59v4.46h-21.68c-.65,0-1.25-.12-1.83-.37-.57-.25-1.07-.59-1.5-1.01s-.76-.93-1.01-1.5-.37-1.18-.37-1.83v-8.52c0-.64.12-1.25.37-1.83.25-.57.59-1.07,1.01-1.5.43-.43.93-.76,1.5-1.01s1.18-.37,1.83-.37h21.68v4.46h-19.59s0,9.02,0,9.02Z"/>
      <path class="cls-1" d="m144.61,42.11h-9.7v13.48h-6.8v-13.48h-9.73v-4.46h26.24v4.46h-.01Z"/>
      <path class="cls-1" d="m167.45,42.11h-12.85v13.48h-6.8v-17.94h21.12c.66,0,1.31.11,1.95.34.63.23,1.2.55,1.7.97.5.42.9.91,1.2,1.48s.45,1.2.45,1.89v2.15c0,.62-.16,1.22-.48,1.79-.32.57-.74,1.07-1.25,1.5s-1.08.77-1.7,1.03-1.23.39-1.81.39l4.96,6.4h-7.3l-8.05-10.61h8.86v-2.87h0Z"/>
      <path class="cls-1" d="m177.37,51.13h9.73v-9.02h-9.7v-4.46h26.24v4.46h-9.73v9.02h9.7v4.46h-26.24v-4.46Z"/>
      <path class="cls-1" d="m213.63,51.13h19.59v4.46h-21.68c-.65,0-1.25-.12-1.83-.37-.57-.25-1.07-.59-1.5-1.01-.43-.43-.76-.93-1.01-1.5s-.38-1.18-.38-1.83v-8.52c0-.64.12-1.25.38-1.83.25-.57.59-1.07,1.01-1.5.43-.43.93-.76,1.5-1.01s1.18-.37,1.83-.37h21.68v4.46h-19.59v9.02Z"/>
    </g>
  </g>
  <g>
    <path class="cls-1" d="m239.1,7.88V1.18h-2.47V.16h6.24v1.02h-2.46v6.71h-1.31Z"/>
    <path class="cls-1" d="m243.92,7.88V.16h1.34l2.45,5,2.44-5h1.34v7.73h-1.3V2.28l-2.09,4.27h-.79l-2.1-4.27v5.6h-1.3.01Z"/>
  </g>
</svg>